<?xml version="1.0" encoding="UTF-8" standalone="no"?>
<svg
   xmlns:sketch="http://www.bohemiancoding.com/sketch/ns"
   xmlns:dc="http://purl.org/dc/elements/1.1/"
   xmlns:cc="http://creativecommons.org/ns#"
   xmlns:rdf="http://www.w3.org/1999/02/22-rdf-syntax-ns#"
   xmlns:svg="http://www.w3.org/2000/svg"
   xmlns="http://www.w3.org/2000/svg"
   xmlns:sodipodi="http://sodipodi.sourceforge.net/DTD/sodipodi-0.dtd"
   xmlns:inkscape="http://www.inkscape.org/namespaces/inkscape"
   width="226.14848"
   height="24.216722"
   viewBox="0 0 226.14848 24.216722"
   version="1.1"
   id="svg2"
   inkscape:version="0.48.5 r10040"
   sodipodi:docname="logo-white.svg">
  <metadata
     id="metadata26">
    <rdf:RDF>
      <cc:Work
         rdf:about="">
        <dc:format>image/svg+xml</dc:format>
        <dc:type
           rdf:resource="http://purl.org/dc/dcmitype/StillImage" />
        <dc:title>logo</dc:title>
      </cc:Work>
    </rdf:RDF>
  </metadata>
  <sodipodi:namedview
     pagecolor="#ffffff"
     bordercolor="#666666"
     borderopacity="1"
     objecttolerance="10"
     gridtolerance="10"
     guidetolerance="10"
     inkscape:pageopacity="0"
     inkscape:pageshadow="2"
     inkscape:window-width="1149"
     inkscape:window-height="846"
     id="namedview24"
     showgrid="false"
     inkscape:zoom="2.0428571"
     inkscape:cx="56.156961"
     inkscape:cy="12.197673"
     inkscape:window-x="0"
     inkscape:window-y="0"
     inkscape:window-maximized="0"
     inkscape:current-layer="g3815"
     fit-margin-top="0"
     fit-margin-left="0"
     fit-margin-right="0"
     fit-margin-bottom="0" />
  <!-- Generator: Sketch 3.3.2 (12043) - http://www.bohemiancoding.com/sketch -->
  <title
     id="title4">logo</title>
  <desc
     id="desc6">Created with Sketch.</desc>
  <defs
     id="defs8" />
  <g
     id="Page-1"
     sketch:type="MSPage"
     style="fill:none;stroke:none"
     transform="translate(-0.48450116,-0.48095136)">
    <g
       style="fill:#000000"
       transform="translate(-80,0)"
       sketch:type="MSLayerGroup"
       id="Group">
      <g
         id="g3815">
        <g
           style="fill:#ffffff;fill-opacity:1;stroke:none"
           id="logo"
           transform="translate(80,0.299999)"
           sketch:type="MSShapeGroup">
          <path
             style="fill:#ffffff;fill-opacity:1;stroke:none"
             d="m 0.48450116,10.239255 c 0,-5.7703693 3.69456654,-10.05830264 9.51936884,-10.05830264 5.852264,0 9.546831,4.28793334 9.546831,10.05830264 0,5.771841 -3.694567,10.059774 -9.546831,10.059774 -5.8248023,0 -9.51936884,-4.287933 -9.51936884,-10.059774 l 0,0 z m 14.21187084,0 c 0,-3.5052773 -1.536869,-6.2019088 -4.66504,-6.2019088 -3.1016904,0 -4.6929923,2.6966315 -4.6929923,6.2019088 0,3.506749 1.5913019,6.176409 4.6929923,6.176409 3.128171,0 4.66504,-2.66966 4.66504,-6.176409 l 0,0 z"
             id="Fill-1"
             inkscape:connector-curvature="0" />
          <path
             style="fill:#ffffff;fill-opacity:1;stroke:none"
             d="m 21.143964,6.032726 4.20702,0 0,1.6722156 0.08091,0 c 0.943992,-1.2406761 2.292553,-2.0762935 4.180048,-2.0762935 3.667595,0 5.905716,3.1551422 5.905716,7.3082199 0,4.476731 -2.399948,7.3347 -6.013601,7.3347 -1.77961,0 -3.047257,-0.701252 -3.910336,-1.860033 l -0.05394,0 0,5.986139 -4.395818,0 0,-18.364948 0,0 z m 9.923938,7.065969 c 0,-2.373467 -0.88956,-3.937798 -2.777546,-3.937798 -1.914466,0 -2.88592,1.699187 -2.88592,3.937798 0,2.238121 1.078849,3.77548 2.966834,3.77548 1.671725,0 2.696632,-1.429965 2.696632,-3.77548 l 0,0 z"
             id="Fill-2"
             inkscape:connector-curvature="0" />
          <path
             style="fill:#ffffff;fill-opacity:1;stroke:none"
             d="m 36.382703,12.909896 c 0,-4.1261057 2.88592,-7.2812479 7.092449,-7.2812479 1.968409,0 3.53274,0.6468189 4.719473,1.726158 1.644754,1.5098979 2.453891,3.9093559 2.42692,6.7138719 l -9.923938,0 c 0.269713,1.861014 1.294128,3.021267 3.1012,3.021267 1.159272,0 1.914466,-0.512453 2.292554,-1.375532 l 4.287443,0 c -0.296684,1.240185 -1.10582,2.426919 -2.319525,3.263027 -1.159272,0.809627 -2.561285,1.267157 -4.314414,1.267157 -4.557646,0 -7.362162,-3.154652 -7.362162,-7.334701 l 0,0 z m 9.789081,-1.456445 C 46.010447,9.8082063 44.985541,8.7568191 43.556066,8.7568191 c -1.671725,0 -2.534804,1.0513872 -2.831978,2.6966319 l 5.447696,0 0,0 z"
             id="Fill-3"
             inkscape:connector-curvature="0" />
          <path
             style="fill:#ffffff;fill-opacity:1;stroke:none"
             d="m 52.106433,6.032726 4.233991,0 0,1.8879853 0.08091,0 c 1.024907,-1.4839074 2.346006,-2.2920632 4.261453,-2.2920632 3.020286,0 4.799896,2.1567167 4.799896,5.2314359 l 0,8.980435 -4.395818,0 0,-8.090385 c 0,-1.455955 -0.728223,-2.4538905 -2.157698,-2.4538905 -1.455955,0 -2.426919,1.2132145 -2.426919,2.9128915 l 0,7.631384 -4.395818,0 0,-13.807793"
             id="Fill-4"
             inkscape:connector-curvature="0" />
          <path
             style="fill:#ffffff;fill-opacity:1;stroke:none"
             d="m 85.820947,12.963348 c 0,-4.1530768 2.966343,-7.3077287 7.389133,-7.3077287 4.44927,0 7.36216,3.1546519 7.36216,7.3077287 0,4.153078 -2.91289,7.30822 -7.36216,7.30822 -4.42279,0 -7.389133,-3.155142 -7.389133,-7.30822 l 0,0 z m 10.301534,0 c 0,-2.507342 -1.024907,-4.2065289 -2.939373,-4.2065289 -1.914956,0 -2.912401,1.6991869 -2.912401,4.2065289 0,2.508814 0.997445,4.180049 2.912401,4.180049 1.914466,0 2.939373,-1.671235 2.939373,-4.180049 l 0,0 z"
             id="Fill-5"
             inkscape:connector-curvature="0" />
          <path
             style="fill:#ffffff;fill-opacity:1;stroke:none"
             d="m 102.05664,6.032726 4.20702,0 0,1.968899 0.0809,0 c 0.86308,-1.4294746 2.18467,-2.3729769 4.18005,-2.3729769 1.80658,0 3.18211,0.9435023 3.88337,2.4269193 l 0.0539,0 c 1.07836,-1.6722155 2.56226,-2.4269193 4.34187,-2.4269193 3.12818,0 4.69251,2.1302359 4.69251,5.2314359 l 0,8.980435 -4.39582,0 0,-8.19876 c 0,-1.482927 -0.62083,-2.3455155 -1.94193,-2.3455155 -1.40201,0 -2.18418,1.1597625 -2.18418,2.8045165 l 0,7.739759 -4.39582,0 0,-8.19876 c 0,-1.482927 -0.61984,-2.3455155 -1.94192,-2.3455155 -1.37554,0 -2.18418,1.1597625 -2.18418,2.8045165 l 0,7.739759 -4.39582,0 0,-13.807793"
             id="Fill-6"
             inkscape:connector-curvature="0" />
          <path
             style="fill:#ffffff;fill-opacity:1;stroke:none"
             d="m 124.87478,12.909896 c 0,-4.1261057 2.88494,-7.2812479 7.09196,-7.2812479 1.9689,0 3.53323,0.6468189 4.71947,1.726158 1.64525,1.5098979 2.45389,3.9093559 2.42741,6.7138719 l -9.92443,0 c 0.26972,1.861014 1.29462,3.021267 3.10169,3.021267 1.15928,0 1.91447,-0.512453 2.29207,-1.375532 l 4.28793,0 c -0.29668,1.240185 -1.10582,2.426919 -2.31952,3.263027 -1.15928,0.809627 -2.56178,1.267157 -4.31491,1.267157 -4.55715,0 -7.36167,-3.154652 -7.36167,-7.334701 l 0,0 z m 9.78859,-1.456445 c -0.16134,-1.6452447 -1.18624,-2.6966319 -2.61572,-2.6966319 -1.67172,0 -2.53431,1.0513872 -2.83148,2.6966319 l 5.4472,0 0,0 z"
             id="Fill-7"
             inkscape:connector-curvature="0" />
          <path
             style="fill:#ffffff;fill-opacity:1;stroke:none"
             d="m 79.29195,0.55805903 4.773415,0 0,19.28245997 -4.773415,0 0,-19.28245997 z"
             id="Fill-8"
             inkscape:connector-curvature="0" />
          <path
             style="fill:#ffffff;fill-opacity:1;stroke:none"
             d="m 67.74974,0.55805903 4.773415,0 0,19.28245997 -4.773415,0 0,-19.28245997 z"
             id="Fill-9"
             inkscape:connector-curvature="0" />
          <path
             style="fill:#ffffff;fill-opacity:1;stroke:none"
             d="m 78.458785,10.199044 c 0,1.408388 -1.141619,2.550987 -2.551478,2.550987 -1.408388,0 -2.550987,-1.142599 -2.550987,-2.550987 0,-1.4088787 1.142599,-2.5504968 2.550987,-2.5504968 1.409859,0 2.551478,1.1416181 2.551478,2.5504968"
             id="Fill-10"
             inkscape:connector-curvature="0" />
        </g>
        <g
           id="text3793"
           style="font-size:34.9936142px;font-style:normal;font-weight:normal;line-height:125%;letter-spacing:0px;word-spacing:0px;fill:none;stroke:#ffffff;stroke-opacity:1;font-family:Sans"
           transform="scale(1.0747268,0.93046903)">
          <path
             id="path3807"
             style="font-size:27.99489212px;font-variant:normal;font-stretch:normal;fill:none;stroke:#ffffff;stroke-opacity:1;font-family:Arial Rounded MT Bold;-inkscape-font-specification:Arial Rounded MT Bold"
             d="m 216.42836,3.5994478 0,14.5852292 8.22897,0 c 0.65612,4e-6 1.15961,0.15948 1.51047,0.478429 0.35083,0.318954 0.52625,0.719922 0.52627,1.202905 -2e-5,0.492099 -0.17316,0.890789 -0.51944,1.196071 -0.3463,0.305283 -0.85207,0.457924 -1.5173,0.457924 l -9.80094,0 c -0.88396,0 -1.51959,-0.195927 -1.90688,-0.587783 -0.3873,-0.391855 -0.58095,-1.025202 -0.58095,-1.900044 l 0,-15.4327312 c 0,-0.8201441 0.18453,-1.4352656 0.55361,-1.8453664 0.36907,-0.4100613 0.85433,-0.6151018 1.45579,-0.6151222 0.61056,2.04e-5 1.10493,0.2027827 1.48312,0.6082875 0.37819,0.4055443 0.56728,1.0229441 0.56728,1.8522011 z"
             inkscape:connector-curvature="0" />
          <path
             id="path3809"
             style="font-size:27.99489212px;font-variant:normal;font-stretch:normal;fill:none;stroke:#ffffff;stroke-opacity:1;font-family:Arial Rounded MT Bold;-inkscape-font-specification:Arial Rounded MT Bold"
             d="m 242.16781,19.250889 -0.95686,-2.515166 -8.14695,0 -0.95686,2.569843 c -0.37363,1.002423 -0.69258,1.679057 -0.95685,2.029904 -0.26428,0.350847 -0.69714,0.52627 -1.29859,0.526271 -0.51033,-10e-7 -0.96142,-0.186815 -1.35327,-0.560445 -0.39186,-0.373629 -0.58779,-0.797379 -0.58779,-1.271252 0,-0.273386 0.0456,-0.555886 0.1367,-0.847502 0.0911,-0.291611 0.24149,-0.697135 0.45109,-1.216575 l 5.12602,-13.0132505 c 0.1458,-0.3736128 0.32122,-0.8224237 0.52627,-1.346434 0.20503,-0.5239745 0.42374,-0.959116 0.65613,-1.3054259 0.23237,-0.3462714 0.53765,-0.6264934 0.91585,-0.8406669 0.37817,-0.2141334 0.84521,-0.3212101 1.40111,-0.3212305 0.56499,2.04e-5 1.03658,0.1070971 1.41478,0.3212305 0.37817,0.2141735 0.68346,0.489839 0.91585,0.8269975 0.23236,0.337197 0.42829,0.6994352 0.58778,1.0867158 0.15946,0.3873169 0.36223,0.9044746 0.60829,1.5514747 l 5.23537,12.9312343 c 0.41006,0.984198 0.6151,1.699562 0.61512,2.146093 -2e-5,0.46476 -0.19367,0.890789 -0.58095,1.278087 -0.38731,0.387299 -0.85435,0.580948 -1.40111,0.580949 -0.31897,-10e-7 -0.59235,-0.05696 -0.82016,-0.170868 -0.22784,-0.113911 -0.41921,-0.268831 -0.57411,-0.464759 -0.15494,-0.195927 -0.32125,-0.496653 -0.49894,-0.902179 -0.17771,-0.405523 -0.33036,-0.763205 -0.45792,-1.073046 z m -8.0376,-5.563438 5.98719,0 -3.02093,-8.2699755 z"
             inkscape:connector-curvature="0" />
          <path
             id="path3811"
             style="font-size:27.99489212px;font-variant:normal;font-stretch:normal;fill:none;stroke:#ffffff;stroke-opacity:1;font-family:Arial Rounded MT Bold;-inkscape-font-specification:Arial Rounded MT Bold"
             d="m 258.02429,21.520006 -6.12388,0 c -0.88396,0 -1.51503,-0.198206 -1.89321,-0.594618 -0.37819,-0.396411 -0.56728,-1.02748 -0.56728,-1.893209 l 0,-15.0636579 c 0,-0.8839349 0.19365,-1.5195605 0.58095,-1.9068787 0.3873,-0.3872792 1.01381,-0.5809286 1.87954,-0.5809486 l 6.49296,0 c 0.95684,2e-5 1.78612,0.059254 2.48782,0.1777019 0.70168,0.1184877 1.33047,0.3463105 1.88638,0.6834691 0.47385,0.2825194 0.89305,0.6402012 1.25758,1.0730464 0.3645,0.4328814 0.64244,0.9113092 0.83383,1.435285 0.19136,0.524009 0.28704,1.0776184 0.28706,1.6608297 -2e-5,2.0048556 -1.00244,3.4720343 -3.00726,4.4015411 2.63361,0.838398 3.95043,2.469609 3.95045,4.893638 -2e-5,1.120894 -0.28708,2.130149 -0.86117,3.027768 -0.57414,0.897624 -1.34873,1.560589 -2.3238,1.988895 -0.61058,0.255162 -1.31227,0.435142 -2.10508,0.53994 -0.79284,0.104799 -1.7178,0.157198 -2.77489,0.157198 z m -0.30072,-8.898767 -4.22384,0 0,5.850495 4.36053,0 c 2.74298,3e-6 4.11447,-0.988748 4.11448,-2.966255 -10e-6,-1.011528 -0.35541,-1.745117 -1.06621,-2.200771 -0.71082,-0.455637 -1.77247,-0.68346 -3.18496,-0.683469 z m -4.22384,-8.0922733 0,5.1806954 3.71807,0 c 1.01152,1.18e-5 1.79295,-0.095674 2.3443,-0.287057 0.55132,-0.1913591 0.97279,-0.5558755 1.26442,-1.0935505 0.2278,-0.3827291 0.34172,-0.8110359 0.34173,-1.2849218 -10e-6,-1.0115187 -0.35997,-1.6835959 -1.07988,-2.0162337 -0.71993,-0.3326048 -1.81804,-0.4989154 -3.29432,-0.4989324 z"
             inkscape:connector-curvature="0" />
          <path
             id="path3813"
             style="font-size:27.99489212px;font-variant:normal;font-stretch:normal;fill:none;stroke:#ffffff;stroke-opacity:1;font-family:Arial Rounded MT Bold;-inkscape-font-specification:Arial Rounded MT Bold"
             d="m 284.81628,15.505479 c -2e-5,1.212023 -0.31214,2.301016 -0.93636,3.266982 -0.62425,0.965971 -1.53782,1.722343 -2.74071,2.269117 -1.20291,0.546775 -2.62909,0.820162 -4.27851,0.820163 -1.97751,-10e-7 -3.60873,-0.37363 -4.89364,-1.12089 -0.9113,-0.537661 -1.65172,-1.255302 -2.22128,-2.152927 -0.56956,-0.897619 -0.85433,-1.77018 -0.85433,-2.617686 0,-0.492092 0.17086,-0.913564 0.5126,-1.264418 0.34173,-0.35084 0.77687,-0.526264 1.30543,-0.526271 0.4283,7e-6 0.79054,0.136701 1.08671,0.410081 0.29617,0.273394 0.54905,0.678919 0.75865,1.216575 0.25516,0.637909 0.53082,1.171015 0.827,1.599318 0.29616,0.42831 0.71308,0.781436 1.25075,1.059377 0.53765,0.277946 1.2439,0.416918 2.11875,0.416916 1.2029,2e-6 2.18026,-0.28022 2.93208,-0.840667 0.75181,-0.560441 1.12771,-1.259857 1.12773,-2.09825 -2e-5,-0.665237 -0.20278,-1.205177 -0.60829,-1.619822 -0.40554,-0.41463 -0.92953,-0.731304 -1.57198,-0.950022 -0.64247,-0.218702 -1.50136,-0.451081 -2.57668,-0.697138 -1.43985,-0.337169 -2.64503,-0.731303 -3.61555,-1.182402 -0.97053,-0.451079 -1.74057,-1.0662 -2.31012,-1.8453661 -0.56956,-0.7791421 -0.85434,-1.747389 -0.85434,-2.9047435 0,-1.1026475 0.30072,-2.0822855 0.90218,-2.9389169 0.60145,-0.856596 1.47173,-1.5150038 2.61085,-1.9752255 1.13911,-0.4601824 2.47871,-0.6902834 4.0188,-0.6903038 1.23023,2.04e-5 2.29417,0.1526617 3.1918,0.4579243 0.89761,0.3053024 1.64259,0.710827 2.23494,1.2165749 0.59233,0.5057853 1.02519,1.0366124 1.29859,1.5924829 0.27338,0.5559047 0.41007,1.0981229 0.41009,1.6266563 -2e-5,0.4829998 -0.17089,0.9181413 -0.51261,1.3054259 -0.34175,0.3873129 -0.76777,0.5809623 -1.27808,0.5809487 -0.46478,1.36e-5 -0.8179,-0.1161761 -1.05938,-0.3485692 -0.24151,-0.2323653 -0.5035,-0.6128294 -0.78599,-1.1413934 -0.36453,-0.7563565 -0.80195,-1.3464175 -1.31226,-1.7701848 -0.51033,-0.4237335 -1.3305,-0.6356087 -2.46049,-0.6356262 -1.04799,1.75e-5 -1.89321,0.2301185 -2.53567,0.6903037 -0.64247,0.4602189 -0.9637,1.0138283 -0.96369,1.6608298 -1e-5,0.4009833 0.10935,0.7472739 0.32807,1.038873 0.2187,0.2916272 0.51943,0.5422323 0.90217,0.7518159 0.38274,0.2096103 0.77004,0.3736427 1.1619,0.4920977 0.39185,0.1184807 1.03887,0.2916261 1.94105,0.5194365 1.13,0.2642868 2.15292,0.5559 3.06878,0.8748408 0.91583,0.318963 1.69499,0.706262 2.33746,1.161897 0.64245,0.455656 1.14366,1.032048 1.50364,1.729177 0.35994,0.697146 0.53992,1.551481 0.53994,2.563009 z"
             inkscape:connector-curvature="0" />
        </g>
      </g>
    </g>
  </g>
</svg>
