<?xml version="1.0" encoding="UTF-8" standalone="no"?>
<svg
   xmlns:sketch="http://www.bohemiancoding.com/sketch/ns"
   xmlns:dc="http://purl.org/dc/elements/1.1/"
   xmlns:cc="http://creativecommons.org/ns#"
   xmlns:rdf="http://www.w3.org/1999/02/22-rdf-syntax-ns#"
   xmlns:svg="http://www.w3.org/2000/svg"
   xmlns="http://www.w3.org/2000/svg"
   xmlns:sodipodi="http://sodipodi.sourceforge.net/DTD/sodipodi-0.dtd"
   xmlns:inkscape="http://www.inkscape.org/namespaces/inkscape"
   width="222.0975"
   height="79.509697"
   viewBox="0 0 222.0975 79.509695"
   version="1.1"
   id="svg2"
   inkscape:version="0.48.5 r10040"
   sodipodi:docname="logo.svg"
   inkscape:export-filename="C:\Users\Peter\dev\openhome-labs.github.io\assets\themes\bootstrap-3\bootstrap\img\logo.png"
   inkscape:export-xdpi="300"
   inkscape:export-ydpi="300">
  <metadata
     id="metadata26">
    <rdf:RDF>
      <cc:Work
         rdf:about="">
        <dc:format>image/svg+xml</dc:format>
        <dc:type
           rdf:resource="http://purl.org/dc/dcmitype/StillImage" />
        <dc:title>logo</dc:title>
      </cc:Work>
    </rdf:RDF>
  </metadata>
  <sodipodi:namedview
     pagecolor="#ffffff"
     bordercolor="#666666"
     borderopacity="1"
     objecttolerance="10"
     gridtolerance="10"
     guidetolerance="10"
     inkscape:pageopacity="0"
     inkscape:pageshadow="2"
     inkscape:window-width="1751"
     inkscape:window-height="917"
     id="namedview24"
     showgrid="false"
     inkscape:zoom="4.0857142"
     inkscape:cx="42.580752"
     inkscape:cy="38.980495"
     inkscape:window-x="0"
     inkscape:window-y="0"
     inkscape:window-maximized="0"
     inkscape:current-layer="text3035"
     fit-margin-top="0"
     fit-margin-left="0"
     fit-margin-right="0"
     fit-margin-bottom="0" />
  <!-- Generator: Sketch 3.3.2 (12043) - http://www.bohemiancoding.com/sketch -->
  <title
     id="title4">logo</title>
  <desc
     id="desc6">Created with Sketch.</desc>
  <defs
     id="defs8" />
  <g
     id="Page-1"
     sketch:type="MSPage"
     style="fill:none;stroke:none"
     transform="translate(-0.48450116,28.029202)">
    <g
       style="fill:#000000"
       transform="translate(-80,0)"
       sketch:type="MSLayerGroup"
       id="Group">
      <g
         id="g3815">
        <path
           sodipodi:type="arc"
           style="fill:#00b4c8;fill-opacity:1;stroke:#00b4c8;stroke-width:0.20900001000000001;stroke-miterlimit:4;stroke-opacity:1;stroke-dasharray:none"
           id="path3839"
           sodipodi:cx="186.50349"
           sodipodi:cy="25.93001"
           sodipodi:rx="41.608391"
           sodipodi:ry="41.608391"
           d="m 228.11189,25.93001 c 0,22.97968 -18.62872,41.608391 -41.6084,41.608391 -22.97968,0 -41.60839,-18.628711 -41.60839,-41.608391 0,-22.9796799 18.62871,-41.608391 41.60839,-41.608391 22.97968,0 41.6084,18.6287111 41.6084,41.608391 z"
           transform="matrix(0.95305906,0,0,0.95305906,85.07831,-12.987184)" />
        <g
           style="fill:#000000;fill-opacity:1;stroke:none"
           id="logo"
           transform="translate(80,0.299999)"
           sketch:type="MSShapeGroup">
          <path
             style="fill:#000000;fill-opacity:1;stroke:none"
             d="m 0.48450116,10.239255 c 0,-5.7703693 3.69456654,-10.05830264 9.51936884,-10.05830264 5.852264,0 9.546831,4.28793334 9.546831,10.05830264 0,5.771841 -3.694567,10.059774 -9.546831,10.059774 -5.8248023,0 -9.51936884,-4.287933 -9.51936884,-10.059774 l 0,0 z m 14.21187084,0 c 0,-3.5052773 -1.536869,-6.2019088 -4.66504,-6.2019088 -3.1016904,0 -4.6929923,2.6966315 -4.6929923,6.2019088 0,3.506749 1.5913019,6.176409 4.6929923,6.176409 3.128171,0 4.66504,-2.66966 4.66504,-6.176409 l 0,0 z"
             id="Fill-1"
             inkscape:connector-curvature="0" />
          <path
             style="fill:#000000;fill-opacity:1;stroke:none"
             d="m 21.143964,6.032726 4.20702,0 0,1.6722156 0.08091,0 c 0.943992,-1.2406761 2.292553,-2.0762935 4.180048,-2.0762935 3.667595,0 5.905716,3.1551422 5.905716,7.3082199 0,4.476731 -2.399948,7.3347 -6.013601,7.3347 -1.77961,0 -3.047257,-0.701252 -3.910336,-1.860033 l -0.05394,0 0,5.986139 -4.395818,0 0,-18.364948 0,0 z m 9.923938,7.065969 c 0,-2.373467 -0.88956,-3.937798 -2.777546,-3.937798 -1.914466,0 -2.88592,1.699187 -2.88592,3.937798 0,2.238121 1.078849,3.77548 2.966834,3.77548 1.671725,0 2.696632,-1.429965 2.696632,-3.77548 l 0,0 z"
             id="Fill-2"
             inkscape:connector-curvature="0" />
          <path
             style="fill:#000000;fill-opacity:1;stroke:none"
             d="m 36.382703,12.909896 c 0,-4.1261057 2.88592,-7.2812479 7.092449,-7.2812479 1.968409,0 3.53274,0.6468189 4.719473,1.726158 1.644754,1.5098979 2.453891,3.9093559 2.42692,6.7138719 l -9.923938,0 c 0.269713,1.861014 1.294128,3.021267 3.1012,3.021267 1.159272,0 1.914466,-0.512453 2.292554,-1.375532 l 4.287443,0 c -0.296684,1.240185 -1.10582,2.426919 -2.319525,3.263027 -1.159272,0.809627 -2.561285,1.267157 -4.314414,1.267157 -4.557646,0 -7.362162,-3.154652 -7.362162,-7.334701 l 0,0 z m 9.789081,-1.456445 C 46.010447,9.8082063 44.985541,8.7568191 43.556066,8.7568191 c -1.671725,0 -2.534804,1.0513872 -2.831978,2.6966319 l 5.447696,0 0,0 z"
             id="Fill-3"
             inkscape:connector-curvature="0" />
          <path
             style="fill:#000000;fill-opacity:1;stroke:none"
             d="m 52.106433,6.032726 4.233991,0 0,1.8879853 0.08091,0 c 1.024907,-1.4839074 2.346006,-2.2920632 4.261453,-2.2920632 3.020286,0 4.799896,2.1567167 4.799896,5.2314359 l 0,8.980435 -4.395818,0 0,-8.090385 c 0,-1.455955 -0.728223,-2.4538905 -2.157698,-2.4538905 -1.455955,0 -2.426919,1.2132145 -2.426919,2.9128915 l 0,7.631384 -4.395818,0 0,-13.807793"
             id="Fill-4"
             inkscape:connector-curvature="0" />
          <path
             style="fill:#000000;fill-opacity:1;stroke:none"
             d="m 85.820947,12.963348 c 0,-4.1530768 2.966343,-7.3077287 7.389133,-7.3077287 4.44927,0 7.36216,3.1546519 7.36216,7.3077287 0,4.153078 -2.91289,7.30822 -7.36216,7.30822 -4.42279,0 -7.389133,-3.155142 -7.389133,-7.30822 l 0,0 z m 10.301534,0 c 0,-2.507342 -1.024907,-4.2065289 -2.939373,-4.2065289 -1.914956,0 -2.912401,1.6991869 -2.912401,4.2065289 0,2.508814 0.997445,4.180049 2.912401,4.180049 1.914466,0 2.939373,-1.671235 2.939373,-4.180049 l 0,0 z"
             id="Fill-5"
             inkscape:connector-curvature="0" />
          <path
             style="fill:#000000;fill-opacity:1;stroke:none"
             d="m 102.05664,6.032726 4.20702,0 0,1.968899 0.0809,0 c 0.86308,-1.4294746 2.18467,-2.3729769 4.18005,-2.3729769 1.80658,0 3.18211,0.9435023 3.88337,2.4269193 l 0.0539,0 c 1.07836,-1.6722155 2.56226,-2.4269193 4.34187,-2.4269193 3.12818,0 4.69251,2.1302359 4.69251,5.2314359 l 0,8.980435 -4.39582,0 0,-8.19876 c 0,-1.482927 -0.62083,-2.3455155 -1.94193,-2.3455155 -1.40201,0 -2.18418,1.1597625 -2.18418,2.8045165 l 0,7.739759 -4.39582,0 0,-8.19876 c 0,-1.482927 -0.61984,-2.3455155 -1.94192,-2.3455155 -1.37554,0 -2.18418,1.1597625 -2.18418,2.8045165 l 0,7.739759 -4.39582,0 0,-13.807793"
             id="Fill-6"
             inkscape:connector-curvature="0" />
          <path
             style="fill:#000000;fill-opacity:1;stroke:none"
             d="m 124.87478,12.909896 c 0,-4.1261057 2.88494,-7.2812479 7.09196,-7.2812479 1.9689,0 3.53323,0.6468189 4.71947,1.726158 1.64525,1.5098979 2.45389,3.9093559 2.42741,6.7138719 l -9.92443,0 c 0.26972,1.861014 1.29462,3.021267 3.10169,3.021267 1.15928,0 1.91447,-0.512453 2.29207,-1.375532 l 4.28793,0 c -0.29668,1.240185 -1.10582,2.426919 -2.31952,3.263027 -1.15928,0.809627 -2.56178,1.267157 -4.31491,1.267157 -4.55715,0 -7.36167,-3.154652 -7.36167,-7.334701 l 0,0 z m 9.78859,-1.456445 c -0.16134,-1.6452447 -1.18624,-2.6966319 -2.61572,-2.6966319 -1.67172,0 -2.53431,1.0513872 -2.83148,2.6966319 l 5.4472,0 0,0 z"
             id="Fill-7"
             inkscape:connector-curvature="0" />
          <path
             style="fill:#000000;fill-opacity:1;stroke:none"
             d="m 79.29195,0.55805903 4.773415,0 0,19.28245997 -4.773415,0 0,-19.28245997 z"
             id="Fill-8"
             inkscape:connector-curvature="0" />
          <path
             style="fill:#000000;fill-opacity:1;stroke:none"
             d="m 67.74974,0.55805903 4.773415,0 0,19.28245997 -4.773415,0 0,-19.28245997 z"
             id="Fill-9"
             inkscape:connector-curvature="0" />
          <path
             style="fill:#000000;fill-opacity:1;stroke:none"
             d="m 78.458785,10.199044 c 0,1.408388 -1.141619,2.550987 -2.551478,2.550987 -1.408388,0 -2.550987,-1.142599 -2.550987,-2.550987 0,-1.4088787 1.142599,-2.5504968 2.550987,-2.5504968 1.409859,0 2.551478,1.1416181 2.551478,2.5504968"
             id="Fill-10"
             inkscape:connector-curvature="0" />
        </g>
        <g
           style="font-size:27.49990654px;font-style:normal;font-weight:normal;line-height:125%;letter-spacing:0px;word-spacing:0px;fill:#ffffff;fill-opacity:1;stroke:none;font-family:Sans"
           id="text3035">
          <path
             d="m 242.65877,21.346586 -11.46725,0 0,-19.2553054 4.33714,0 0,15.7372514 7.13011,0 z"
             style="font-variant:normal;font-weight:bold;font-stretch:normal;fill:#ffffff;font-family:Segoe WP;-inkscape-font-specification:Segoe WP Bold"
             id="path3009" />
          <path
             d="m 262.19605,21.346586 -4.72654,0 -1.36963,-4.283432 -6.84812,0 -1.35619,4.283432 -4.6997,0 7.00926,-19.2553054 5.1428,0 z m -7.08982,-7.613499 -2.06786,-6.4721463 c -0.15219,-0.4833822 -0.25961,-1.0607722 -0.32226,-1.7321718 l -0.10743,0 c -0.0448,0.5639782 -0.15666,1.1234646 -0.33569,1.6784611 l -2.09472,6.525857 z"
             style="font-variant:normal;font-weight:bold;font-stretch:normal;fill:#ffffff;font-family:Segoe WP;-inkscape-font-specification:Segoe WP Bold"
             id="path3011" />
          <path
             d="m 264.59961,21.346586 0,-19.2553054 7.00925,0 c 2.14842,1.92e-5 3.80003,0.3938977 4.95482,1.1816366 1.15477,0.787775 1.73216,1.8977962 1.73217,3.3300668 -10e-6,1.0384216 -0.35137,1.9470277 -1.05407,2.7258208 -0.70273,0.7788172 -1.60015,1.3204002 -2.69225,1.6247502 l 0,0.05371 c 1.36961,0.170094 2.46396,0.67587 3.28307,1.517329 0.81907,0.841476 1.22861,1.866455 1.22863,3.07494 -2e-5,1.763508 -0.63112,3.162224 -1.8933,4.196153 -1.26222,1.033933 -2.98544,1.550898 -5.16966,1.550898 z m 4.33714,-16.0595155 0,4.5654142 1.90673,0 c 0.89517,1.15e-5 1.60013,-0.2170693 2.11487,-0.6512429 0.51471,-0.4341494 0.77208,-1.0316809 0.77209,-1.7925965 -10e-6,-1.4143678 -1.05632,-2.1215587 -3.16894,-2.1215748 z m 0,7.7880595 0,5.075666 2.34985,0 c 1.00259,4e-6 1.78811,-0.232743 2.35656,-0.69824 0.56842,-0.465488 0.85264,-1.101065 0.85266,-1.906731 -2e-5,-0.769848 -0.27976,-1.374093 -0.83923,-1.812738 -0.5595,-0.43863 -1.34055,-0.657949 -2.34314,-0.657957 z"
             style="font-variant:normal;font-weight:bold;font-stretch:normal;fill:#ffffff;font-family:Segoe WP;-inkscape-font-specification:Segoe WP Bold"
             id="path3013" />
          <path
             d="m 281.33051,20.608063 0,-4.29686 c 0.77881,0.653485 1.62475,1.143595 2.53784,1.470332 0.91307,0.326744 1.83511,0.490114 2.7661,0.490111 0.54605,3e-6 1.02273,-0.04923 1.43005,-0.147705 0.4073,-0.09847 0.74746,-0.234981 1.0205,-0.409545 0.27302,-0.174556 0.47668,-0.380447 0.61096,-0.617673 0.13427,-0.237218 0.20141,-0.494582 0.20142,-0.772092 -10e-6,-0.37597 -0.10743,-0.711662 -0.32227,-1.007077 -0.21485,-0.295403 -0.50802,-0.568432 -0.87951,-0.819089 -0.37151,-0.250643 -0.81238,-0.492341 -1.32263,-0.725095 -0.51026,-0.232739 -1.06079,-0.469961 -1.6516,-0.711668 -1.50391,-0.626616 -2.62512,-1.391994 -3.36364,-2.296134 -0.73852,-0.9041201 -1.10779,-1.9962376 -1.10778,-3.2763566 -1e-5,-1.0025859 0.20141,-1.864195 0.60424,-2.58483 0.40283,-0.7206022 0.95113,-1.3136578 1.64489,-1.7791688 0.69376,-0.4654745 1.49719,-0.8078802 2.41027,-1.0272182 0.91308,-0.2192994 1.87987,-0.3289588 2.90038,-0.3289784 1.0026,1.96e-5 1.89106,0.060444 2.6654,0.1812738 0.77432,0.1208685 1.48822,0.306618 2.14172,0.5572491 l 0,4.014879 c -0.32228,-0.2237798 -0.67364,-0.420719 -1.05408,-0.5908183 -0.38046,-0.1700685 -0.7721,-0.3110591 -1.17492,-0.4229722 -0.40284,-0.1118815 -0.80343,-0.1946855 -1.20178,-0.2484123 -0.39836,-0.053695 -0.77657,-0.08055 -1.13464,-0.080566 -0.49235,1.62e-5 -0.93994,0.047013 -1.34277,0.1409907 -0.40283,0.09401 -0.743,0.2260486 -1.0205,0.3961168 -0.27751,0.1700996 -0.49235,0.3737526 -0.64453,0.6109599 -0.15219,0.2372373 -0.22828,0.5035528 -0.22827,0.7989475 -10e-6,0.3222784 0.085,0.6109734 0.25513,0.8660859 0.17007,0.2551392 0.41177,0.4968373 0.72509,0.7250952 0.31331,0.2282831 0.69376,0.4520777 1.14136,0.6713844 0.44758,0.2193307 0.95335,0.4453632 1.51732,0.6780986 0.76985,0.322275 1.46137,0.664681 2.07458,1.027218 0.61319,0.362557 1.1391,0.772101 1.57776,1.228633 0.43862,0.45655 0.77431,0.977992 1.00707,1.564326 0.23273,0.586349 0.34911,1.268923 0.34912,2.047723 -10e-6,1.074219 -0.20367,1.976111 -0.61096,2.705679 -0.40732,0.729573 -0.96009,1.320391 -1.65832,1.772455 -0.69825,0.452066 -1.51062,0.776568 -2.43712,0.973507 -0.92652,0.196939 -1.9045,0.295409 -2.93395,0.295409 -1.05632,0 -2.06116,-0.08952 -3.01452,-0.268553 -0.95337,-0.179036 -1.77917,-0.44759 -2.47741,-0.805662 z"
             style="font-variant:normal;font-weight:bold;font-stretch:normal;fill:#ffffff;font-family:Segoe WP;-inkscape-font-specification:Segoe WP Bold"
             id="path3015" />
        </g>
      </g>
    </g>
  </g>
</svg>
