<?xml version="1.0" encoding="UTF-8" standalone="no"?>
<svg
   xmlns:sketch="http://www.bohemiancoding.com/sketch/ns"
   xmlns:dc="http://purl.org/dc/elements/1.1/"
   xmlns:cc="http://creativecommons.org/ns#"
   xmlns:rdf="http://www.w3.org/1999/02/22-rdf-syntax-ns#"
   xmlns:svg="http://www.w3.org/2000/svg"
   xmlns="http://www.w3.org/2000/svg"
   xmlns:sodipodi="http://sodipodi.sourceforge.net/DTD/sodipodi-0.dtd"
   xmlns:inkscape="http://www.inkscape.org/namespaces/inkscape"
   width="222.0975"
   height="79.509697"
   viewBox="0 0 222.0975 79.509695"
   version="1.1"
   id="svg2"
   inkscape:version="0.48.5 r10040"
   sodipodi:docname="logo.svg"
   inkscape:export-filename="C:\Users\Peter\dev\openhome-labs.github.io\assets\themes\bootstrap-3\bootstrap\img\logo.png"
   inkscape:export-xdpi="300"
   inkscape:export-ydpi="300">
  <metadata
     id="metadata26">
    <rdf:RDF>
      <cc:Work
         rdf:about="">
        <dc:format>image/svg+xml</dc:format>
        <dc:type
           rdf:resource="http://purl.org/dc/dcmitype/StillImage" />
        <dc:title>logo</dc:title>
      </cc:Work>
    </rdf:RDF>
  </metadata>
  <sodipodi:namedview
     pagecolor="#ffffff"
     bordercolor="#666666"
     borderopacity="1"
     objecttolerance="10"
     gridtolerance="10"
     guidetolerance="10"
     inkscape:pageopacity="0"
     inkscape:pageshadow="2"
     inkscape:window-width="1751"
     inkscape:window-height="917"
     id="namedview24"
     showgrid="false"
     inkscape:zoom="4.0857142"
     inkscape:cx="80.762571"
     inkscape:cy="38.980495"
     inkscape:window-x="0"
     inkscape:window-y="0"
     inkscape:window-maximized="0"
     inkscape:current-layer="g3815"
     fit-margin-top="0"
     fit-margin-left="0"
     fit-margin-right="0"
     fit-margin-bottom="0" />
  <!-- Generator: Sketch 3.3.2 (12043) - http://www.bohemiancoding.com/sketch -->
  <title
     id="title4">logo</title>
  <desc
     id="desc6">Created with Sketch.</desc>
  <defs
     id="defs8" />
  <g
     id="Page-1"
     sketch:type="MSPage"
     style="fill:none;stroke:none"
     transform="translate(-0.48450116,28.029202)">
    <g
       style="fill:#000000"
       transform="translate(-80,0)"
       sketch:type="MSLayerGroup"
       id="Group">
      <g
         id="g3815">
        <path
           sodipodi:type="arc"
           style="fill:#ffffff;fill-opacity:1;stroke:#ffffff;stroke-width:0.20900001000000001;stroke-miterlimit:4;stroke-opacity:1;stroke-dasharray:none"
           id="path3839"
           sodipodi:cx="186.50349"
           sodipodi:cy="25.93001"
           sodipodi:rx="41.608391"
           sodipodi:ry="41.608391"
           d="m 228.11189,25.93001 c 0,22.97968 -18.62872,41.608391 -41.6084,41.608391 -22.97968,0 -41.60839,-18.628711 -41.60839,-41.608391 0,-22.9796799 18.62871,-41.608391 41.60839,-41.608391 22.97968,0 41.6084,18.6287111 41.6084,41.608391 z"
           transform="matrix(0.95305906,0,0,0.95305906,85.07831,-12.987184)" />
        <g
           style="fill:#ffffff;fill-opacity:1;stroke:none"
           id="logo"
           transform="translate(80,0.299999)"
           sketch:type="MSShapeGroup">
          <path
             style="fill:#ffffff;fill-opacity:1;stroke:none"
             d="m 0.48450116,10.239255 c 0,-5.7703693 3.69456654,-10.05830264 9.51936884,-10.05830264 5.852264,0 9.546831,4.28793334 9.546831,10.05830264 0,5.771841 -3.694567,10.059774 -9.546831,10.059774 -5.8248023,0 -9.51936884,-4.287933 -9.51936884,-10.059774 l 0,0 z m 14.21187084,0 c 0,-3.5052773 -1.536869,-6.2019088 -4.66504,-6.2019088 -3.1016904,0 -4.6929923,2.6966315 -4.6929923,6.2019088 0,3.506749 1.5913019,6.176409 4.6929923,6.176409 3.128171,0 4.66504,-2.66966 4.66504,-6.176409 l 0,0 z"
             id="Fill-1"
             inkscape:connector-curvature="0" />
          <path
             style="fill:#ffffff;fill-opacity:1;stroke:none"
             d="m 21.143964,6.032726 4.20702,0 0,1.6722156 0.08091,0 c 0.943992,-1.2406761 2.292553,-2.0762935 4.180048,-2.0762935 3.667595,0 5.905716,3.1551422 5.905716,7.3082199 0,4.476731 -2.399948,7.3347 -6.013601,7.3347 -1.77961,0 -3.047257,-0.701252 -3.910336,-1.860033 l -0.05394,0 0,5.986139 -4.395818,0 0,-18.364948 0,0 z m 9.923938,7.065969 c 0,-2.373467 -0.88956,-3.937798 -2.777546,-3.937798 -1.914466,0 -2.88592,1.699187 -2.88592,3.937798 0,2.238121 1.078849,3.77548 2.966834,3.77548 1.671725,0 2.696632,-1.429965 2.696632,-3.77548 l 0,0 z"
             id="Fill-2"
             inkscape:connector-curvature="0" />
          <path
             style="fill:#ffffff;fill-opacity:1;stroke:none"
             d="m 36.382703,12.909896 c 0,-4.1261057 2.88592,-7.2812479 7.092449,-7.2812479 1.968409,0 3.53274,0.6468189 4.719473,1.726158 1.644754,1.5098979 2.453891,3.9093559 2.42692,6.7138719 l -9.923938,0 c 0.269713,1.861014 1.294128,3.021267 3.1012,3.021267 1.159272,0 1.914466,-0.512453 2.292554,-1.375532 l 4.287443,0 c -0.296684,1.240185 -1.10582,2.426919 -2.319525,3.263027 -1.159272,0.809627 -2.561285,1.267157 -4.314414,1.267157 -4.557646,0 -7.362162,-3.154652 -7.362162,-7.334701 l 0,0 z m 9.789081,-1.456445 C 46.010447,9.8082063 44.985541,8.7568191 43.556066,8.7568191 c -1.671725,0 -2.534804,1.0513872 -2.831978,2.6966319 l 5.447696,0 0,0 z"
             id="Fill-3"
             inkscape:connector-curvature="0" />
          <path
             style="fill:#ffffff;fill-opacity:1;stroke:none"
             d="m 52.106433,6.032726 4.233991,0 0,1.8879853 0.08091,0 c 1.024907,-1.4839074 2.346006,-2.2920632 4.261453,-2.2920632 3.020286,0 4.799896,2.1567167 4.799896,5.2314359 l 0,8.980435 -4.395818,0 0,-8.090385 c 0,-1.455955 -0.728223,-2.4538905 -2.157698,-2.4538905 -1.455955,0 -2.426919,1.2132145 -2.426919,2.9128915 l 0,7.631384 -4.395818,0 0,-13.807793"
             id="Fill-4"
             inkscape:connector-curvature="0" />
          <path
             style="fill:#ffffff;fill-opacity:1;stroke:none"
             d="m 85.820947,12.963348 c 0,-4.1530768 2.966343,-7.3077287 7.389133,-7.3077287 4.44927,0 7.36216,3.1546519 7.36216,7.3077287 0,4.153078 -2.91289,7.30822 -7.36216,7.30822 -4.42279,0 -7.389133,-3.155142 -7.389133,-7.30822 l 0,0 z m 10.301534,0 c 0,-2.507342 -1.024907,-4.2065289 -2.939373,-4.2065289 -1.914956,0 -2.912401,1.6991869 -2.912401,4.2065289 0,2.508814 0.997445,4.180049 2.912401,4.180049 1.914466,0 2.939373,-1.671235 2.939373,-4.180049 l 0,0 z"
             id="Fill-5"
             inkscape:connector-curvature="0" />
          <path
             style="fill:#ffffff;fill-opacity:1;stroke:none"
             d="m 102.05664,6.032726 4.20702,0 0,1.968899 0.0809,0 c 0.86308,-1.4294746 2.18467,-2.3729769 4.18005,-2.3729769 1.80658,0 3.18211,0.9435023 3.88337,2.4269193 l 0.0539,0 c 1.07836,-1.6722155 2.56226,-2.4269193 4.34187,-2.4269193 3.12818,0 4.69251,2.1302359 4.69251,5.2314359 l 0,8.980435 -4.39582,0 0,-8.19876 c 0,-1.482927 -0.62083,-2.3455155 -1.94193,-2.3455155 -1.40201,0 -2.18418,1.1597625 -2.18418,2.8045165 l 0,7.739759 -4.39582,0 0,-8.19876 c 0,-1.482927 -0.61984,-2.3455155 -1.94192,-2.3455155 -1.37554,0 -2.18418,1.1597625 -2.18418,2.8045165 l 0,7.739759 -4.39582,0 0,-13.807793"
             id="Fill-6"
             inkscape:connector-curvature="0" />
          <path
             style="fill:#ffffff;fill-opacity:1;stroke:none"
             d="m 124.87478,12.909896 c 0,-4.1261057 2.88494,-7.2812479 7.09196,-7.2812479 1.9689,0 3.53323,0.6468189 4.71947,1.726158 1.64525,1.5098979 2.45389,3.9093559 2.42741,6.7138719 l -9.92443,0 c 0.26972,1.861014 1.29462,3.021267 3.10169,3.021267 1.15928,0 1.91447,-0.512453 2.29207,-1.375532 l 4.28793,0 c -0.29668,1.240185 -1.10582,2.426919 -2.31952,3.263027 -1.15928,0.809627 -2.56178,1.267157 -4.31491,1.267157 -4.55715,0 -7.36167,-3.154652 -7.36167,-7.334701 l 0,0 z m 9.78859,-1.456445 c -0.16134,-1.6452447 -1.18624,-2.6966319 -2.61572,-2.6966319 -1.67172,0 -2.53431,1.0513872 -2.83148,2.6966319 l 5.4472,0 0,0 z"
             id="Fill-7"
             inkscape:connector-curvature="0" />
          <path
             style="fill:#ffffff;fill-opacity:1;stroke:none"
             d="m 79.29195,0.55805903 4.773415,0 0,19.28245997 -4.773415,0 0,-19.28245997 z"
             id="Fill-8"
             inkscape:connector-curvature="0" />
          <path
             style="fill:#ffffff;fill-opacity:1;stroke:none"
             d="m 67.74974,0.55805903 4.773415,0 0,19.28245997 -4.773415,0 0,-19.28245997 z"
             id="Fill-9"
             inkscape:connector-curvature="0" />
          <path
             style="fill:#ffffff;fill-opacity:1;stroke:none"
             d="m 78.458785,10.199044 c 0,1.408388 -1.141619,2.550987 -2.551478,2.550987 -1.408388,0 -2.550987,-1.142599 -2.550987,-2.550987 0,-1.4088787 1.142599,-2.5504968 2.550987,-2.5504968 1.409859,0 2.551478,1.1416181 2.551478,2.5504968"
             id="Fill-10"
             inkscape:connector-curvature="0" />
        </g>
        <text
           xml:space="preserve"
           style="font-size:27.49990654000000100px;font-style:normal;font-weight:normal;line-height:125%;letter-spacing:0px;word-spacing:0px;fill:#000000;fill-opacity:1;stroke:none;font-family:Sans"
           x="228.98938"
           y="21.346586"
           id="text3035"
           sodipodi:linespacing="125%"><tspan
             sodipodi:role="line"
             id="tspan3037"
             x="228.98938"
             y="21.346586"
             style="font-style:normal;font-variant:normal;font-weight:bold;font-stretch:normal;fill:#000000;fill-opacity:1;font-family:Segoe WP;-inkscape-font-specification:Segoe WP Bold">LABS</tspan></text>
      </g>
    </g>
  </g>
</svg>
